<svg width="120" height="30" viewBox="0 0 120 30" fill="none" xmlns="http://www.w3.org/2000/svg">
  <path d="M13.2 7.8C13.2 6.6 12.6 6 11.4 6H9V12H11.4C12.6 12 13.2 11.4 13.2 10.2V7.8Z" fill="#4EEBC0"/>
  <path d="M33 7.8C33 6.6 32.4 6 31.2 6H28.8V12H31.2C32.4 12 33 11.4 33 10.2V7.8Z" fill="#4EEBC0"/>
  <path d="M0 0V24H36V0H0ZM9 18H6V6H3V3H12V6H9V18ZM21 18H18V12H15V18H12V3H15V9H18V3H21V18ZM33 13.2C33 15.6 31.8 16.8 29.4 16.8H28.8V18H25.8V3H29.4C31.8 3 33 4.2 33 6.6V13.2Z" fill="#4EEBC0"/>
  <path d="M42 3H39V18H51V15H42V3Z" fill="#4EEBC0"/>
  <path d="M54 3H57V18H54V3Z" fill="#4EEBC0"/>
  <path d="M69 3H72V18H69L63 9V18H60V3H63L69 12V3Z" fill="#4EEBC0"/>
  <path d="M84 15H78L77.1 18H73.8L79.2 3H82.8L88.2 18H84.9L84 15ZM79.2 12H82.8L81 6.6L79.2 12Z" fill="#4EEBC0"/>
  <path d="M96 18H93V6H90V3H99V6H96V18Z" fill="#4EEBC0"/>
  <path d="M111 3H114V18H111L105 9V18H102V3H105L111 12V3Z" fill="#4EEBC0"/>
  <path d="M117 3H120V18H117V3Z" fill="#4EEBC0"/>
</svg>
